<svg id="fate" data-name="Layer 1" xmlns="http://www.w3.org/2000/svg" viewBox="0 0 381.28 139.81"><title>fate</title><polygon points="104.69 81.43 65.36 81.43 65.36 68.79 109.97 68.79 121.83 40.38 32.12 40.38 32.12 81.43 0 81.43 0 107.28 32.12 107.28 32.12 139.81 65.36 139.81 65.36 107.28 93.9 107.28 104.69 81.43"/><path d="M386.64,48.4v5.23h-0.73v-4L384,52.46h-0.1l-1.85-2.84v4h-0.75V48.4h0.8L384,51.27l1.85-2.87h0.78Zm-10.57.71h1.68v4.52h0.75V49.12h1.68V48.4h-4.11v0.71Z" transform="translate(-5.36 -8.02)"/><polygon points="312.69 101.75 361.27 101.75 361.27 77.74 312.69 77.74 312.69 68.51 364.82 68.51 364.82 67.66 364.82 40.38 364.82 40.38 181.76 40.38 193.53 68.51 215.66 68.51 215.66 139.81 248.9 139.81 248.9 68.51 280.02 68.51 280.02 139.81 365.53 139.81 365.53 112.54 312.69 112.54 312.69 101.75"/><path d="M157.54,8L99.18,147.83a268.91,268.91,0,0,1,37.64-5.56l3-7.75h34.8l3,7.71a269.13,269.13,0,0,1,38.28,5.6L174,47.74Zm-9.37,102.93,9.09-24.15,9.09,24.15H148.17Z" transform="translate(-5.36 -8.02)"/><path d="M188.08,19.72h7.56c4.46,0,7.51,2,7.51,6v0c0,4.06-3.1,6.22-7.63,6.22h-1.82v4.56h-5.62V19.72ZM195.2,28c1.44,0,2.4-.65,2.4-1.85v0c0-1.22-.89-1.85-2.38-1.85h-1.54V28h1.51Z" transform="translate(-5.36 -8.02)"/><path d="M205.76,28.17v0a9.18,9.18,0,0,1,18.34,0v0A9.18,9.18,0,0,1,205.76,28.17Zm12.67,0v0a3.6,3.6,0,0,0-3.53-3.79,3.54,3.54,0,0,0-3.48,3.74v0A3.59,3.59,0,0,0,215,31.92,3.54,3.54,0,0,0,218.44,28.17Z" transform="translate(-5.36 -8.02)"/><path d="M225.52,19.72h5.88l2.38,8.07,2.71-8.11h4.85L244,27.79l2.38-8.07h5.78l-5.5,16.92h-4.9l-3-8.35-3,8.35H231Z" transform="translate(-5.36 -8.02)"/><path d="M255,19.72h14.33v4.61h-8.81V26h8.21v4.06h-8.21v1.82h8.93v4.61H255V19.72Z" transform="translate(-5.36 -8.02)"/><path d="M272.72,19.72h8.21c3,0,4.87.74,6,1.92a5.28,5.28,0,0,1,1.54,4v0a5.43,5.43,0,0,1-3.31,5.14l3.91,5.71h-6.41l-3.17-4.8h-1.2v4.8h-5.62V19.72Zm8,8c1.34,0,2.16-.6,2.16-1.63v0c0-1.08-.84-1.61-2.14-1.61h-2.45v3.29h2.42Z" transform="translate(-5.36 -8.02)"/><path d="M291.68,19.72H306v4.61h-8.81V26h8.21v4.06h-8.21v1.82h8.93v4.61H291.68V19.72Z" transform="translate(-5.36 -8.02)"/><path d="M309.44,19.72h6.43c6.67,0,10,3.29,10,8.26v0c0,5-3.41,8.5-10.2,8.5h-6.24V19.72Zm5.62,4.9v7H316c2.57,0,4.22-1.06,4.22-3.48v0c0-2.42-1.66-3.48-4.22-3.48h-0.94Z" transform="translate(-5.36 -8.02)"/><path d="M336.08,19.72h9.41c2.33,0,3.79.53,4.78,1.51a3.59,3.59,0,0,1,1,2.62v0a3.92,3.92,0,0,1-3,3.84c2.16,0.62,3.55,1.78,3.55,4.08v0c0,2.69-2.21,4.66-6.46,4.66h-9.31V19.72Zm9.7,5.4c0-.74-0.6-1.15-1.8-1.15h-2.42v2.35H344c1.2,0,1.78-.41,1.78-1.15v0Zm-1.39,4.66h-2.83v2.5h2.81c1.22,0,1.85-.5,1.85-1.22v0C346.21,30.28,345.61,29.78,344.39,29.78Z" transform="translate(-5.36 -8.02)"/><path d="M359.15,30.57l-6.34-10.85h6.29L362,25.24l2.9-5.52h6.22L364.77,30.5v6h-5.62v-6Z" transform="translate(-5.36 -8.02)"/></svg>
